<svg t="1686462354169" class="icon" viewBox="0 0 1024 1024" version="1.1" xmlns="http://www.w3.org/2000/svg" p-id="1353" xmlns:xlink="http://www.w3.org/1999/xlink" width="200" height="200">
<path d="M220.92928 219.008l27.968-91.328A89.728 89.728 0 0 1 334.46528 64h355.072c39.296 0 73.984 25.856 85.568 63.68l27.968 91.328H883.20128c77.76 0 140.8 63.552 140.8 142.08v516.608a141.44 141.44 0 0 1-140.8 142.08H140.80128a141.44 141.44 0 0 1-140.8-142.08V360.96a141.44 141.44 0 0 1 140.8-142.08h80.128z m28.352 77.44H140.80128a63.68 63.68 0 0 0-45.248 18.944c-12.032 12.16-18.752 28.544-18.752 45.632v516.672c0 17.088 6.72 33.536 18.752 45.632 11.968 12.16 28.288 18.944 45.248 18.944h742.4c16.96 0 33.28-6.848 45.248-18.944 12.032-12.16 18.752-28.544 18.752-45.632V360.96c0-17.088-6.72-33.536-18.752-45.632a63.68 63.68 0 0 0-45.248-18.944h-108.48a38.4 38.4 0 0 1-36.672-27.264l-36.288-118.592a12.8 12.8 0 0 0-12.224-9.088H334.46528a12.8 12.8 0 0 0-12.16 9.088l-36.352 118.592a38.4 38.4 0 0 1-36.672 27.264z" fill="#000000" p-id="1354"></path>
<path d="M512.00128 399.808c106.048 0 192 86.72 192 193.728 0 107.008-85.952 193.728-192 193.728s-192-86.72-192-193.728c0-107.008 85.952-193.728 192-193.728z m0 77.44c-63.616 0-115.2 52.096-115.2 116.288 0 64.192 51.584 116.224 115.2 116.224s115.2-52.032 115.2-116.224A115.712 115.712 0 0 0 512.00128 477.312z" fill="currentColor" p-id="1355"></path>
</svg>